<svg width="964" height="673" viewBox="0 0 964 673" xmlns="http://www.w3.org/2000/svg">
<g id="words-anime">
<g id="les">
<path d="M0 155.2H18.48V251.2H0V155.2Z" fill="currentColor"/>
<path d="M63.9872 253C57.3472 253 51.4672 251.4 46.3472 248.2C41.2272 244.92 37.2672 240.48 34.4672 234.88C31.6672 229.2 30.2672 222.84 30.2672 215.8C30.2672 209.08 31.7072 203 34.5872 197.56C37.5472 192.04 41.5872 187.72 46.7072 184.6C51.8272 181.4 57.5472 179.8 63.8672 179.8C70.3472 179.8 76.1072 181.4 81.1472 184.6C86.1872 187.8 90.1072 192.24 92.9072 197.92C95.7072 203.6 97.1072 210.04 97.1072 217.24C97.1072 218.2 97.0272 219.72 96.8672 221.8H49.5872C49.5872 224.6 50.2272 227.36 51.5072 230.08C52.7872 232.8 54.5872 235.04 56.9072 236.8C59.2272 238.56 61.8272 239.44 64.7072 239.44C67.9072 239.44 70.8672 238.32 73.5872 236.08C76.3872 233.84 78.6272 231.04 80.3072 227.68L94.3472 234.04C91.6272 239.88 87.5872 244.52 82.2272 247.96C76.8672 251.32 70.7872 253 63.9872 253ZM78.1472 210.28C77.6672 204.92 76.1472 200.64 73.5872 197.44C71.0272 194.24 67.7872 192.64 63.8672 192.64C60.0272 192.64 56.7472 194.24 54.0272 197.44C51.3872 200.64 49.7872 204.92 49.2272 210.28H78.1472Z" fill="currentColor"/>
<path d="M137.307 253C131.307 253 125.867 252 120.987 250C116.107 248 112.267 245.24 109.467 241.72C106.747 238.2 105.387 234.28 105.387 229.96H123.867C123.867 232.6 125.147 234.84 127.707 236.68C130.267 238.52 133.467 239.44 137.307 239.44C141.067 239.44 144.147 238.68 146.547 237.16C149.027 235.56 150.267 233.56 150.267 231.16C150.267 229.32 149.547 227.84 148.107 226.72C146.747 225.52 144.987 224.64 142.827 224.08C140.747 223.44 137.787 222.76 133.947 222.04C128.267 220.92 123.587 219.76 119.907 218.56C116.227 217.28 113.067 215.2 110.427 212.32C107.867 209.36 106.587 205.32 106.587 200.2C106.587 196.36 107.867 192.88 110.427 189.76C112.987 186.64 116.467 184.2 120.867 182.44C125.347 180.68 130.347 179.8 135.867 179.8C141.627 179.8 146.827 180.76 151.467 182.68C156.107 184.6 159.747 187.24 162.387 190.6C165.027 193.88 166.347 197.56 166.347 201.64H147.867C147.867 199.32 146.707 197.36 144.387 195.76C142.147 194.16 139.307 193.36 135.867 193.36C132.747 193.36 130.147 194.04 128.067 195.4C126.067 196.68 125.067 198.28 125.067 200.2C125.067 202.04 125.747 203.52 127.107 204.64C128.547 205.76 130.307 206.64 132.387 207.28C134.547 207.84 137.547 208.48 141.387 209.2C147.067 210.32 151.707 211.52 155.307 212.8C158.987 214 162.147 216.08 164.787 219.04C167.427 222 168.747 226.04 168.747 231.16C168.747 235.32 167.387 239.08 164.667 242.44C161.947 245.72 158.187 248.32 153.387 250.24C148.587 252.08 143.227 253 137.307 253Z" fill="currentColor"/>
</g>
<g id="concepts">
<path d="M423.55 253C416.99 253 411.03 251.4 405.67 248.2C400.31 244.92 396.11 240.44 393.07 234.76C390.03 229.08 388.51 222.76 388.51 215.8C388.51 209.08 390.03 203 393.07 197.56C396.11 192.04 400.31 187.72 405.67 184.6C411.03 181.4 416.99 179.8 423.55 179.8C429.15 179.8 434.27 181.16 438.91 183.88C443.63 186.52 447.43 190.2 450.31 194.92C453.27 199.64 454.95 204.88 455.35 210.64H436.39C435.99 206 434.59 202.2 432.19 199.24C429.87 196.28 426.87 194.8 423.19 194.8C418.39 194.8 414.55 196.76 411.67 200.68C408.87 204.52 407.47 209.56 407.47 215.8C407.47 222.36 408.87 227.6 411.67 231.52C414.47 235.36 418.31 237.28 423.19 237.28C426.63 237.28 429.47 236 431.71 233.44C434.03 230.8 435.47 227.36 436.03 223.12H455.11C454.47 228.72 452.67 233.8 449.71 238.36C446.75 242.92 442.95 246.52 438.31 249.16C433.75 251.72 428.83 253 423.55 253Z" fill="currentColor"/>
<path d="M497.35 253C491.03 253 485.27 251.4 480.07 248.2C474.95 244.92 470.91 240.44 467.95 234.76C464.99 229.08 463.51 222.76 463.51 215.8C463.51 209.08 464.99 203 467.95 197.56C470.91 192.04 474.95 187.72 480.07 184.6C485.27 181.4 491.03 179.8 497.35 179.8C503.67 179.8 509.39 181.4 514.51 184.6C519.71 187.72 523.79 192.04 526.75 197.56C529.71 203 531.19 209.08 531.19 215.8C531.19 222.76 529.71 229.08 526.75 234.76C523.79 240.44 519.71 244.92 514.51 248.2C509.39 251.4 503.67 253 497.35 253ZM482.47 215.8C482.47 222.6 483.75 228.12 486.31 232.36C488.95 236.6 492.63 238.72 497.35 238.72C502.07 238.72 505.71 236.6 508.27 232.36C510.91 228.12 512.23 222.6 512.23 215.8C512.23 209.4 510.91 204.2 508.27 200.2C505.71 196.12 502.07 194.08 497.35 194.08C492.63 194.08 488.95 196.12 486.31 200.2C483.75 204.2 482.47 209.4 482.47 215.8Z" fill="currentColor"/>
<path d="M542.93 181.6H561.05V194.08C563.13 189.84 566.09 186.4 569.93 183.76C573.77 181.12 577.77 179.8 581.93 179.8C586.33 179.8 590.29 181.12 593.81 183.76C597.33 186.4 600.09 190.08 602.09 194.8C604.17 199.44 605.21 204.64 605.21 210.4V251.2H586.73V213.28C586.73 207.84 585.61 203.68 583.37 200.8C581.21 197.92 578.25 196.48 574.49 196.48C570.65 196.48 567.49 197.96 565.01 200.92C562.61 203.8 561.41 207.92 561.41 213.28V251.2H542.93V181.6Z" fill="currentColor"/>
<path d="M650.307 253C643.747 253 637.787 251.4 632.427 248.2C627.067 244.92 622.867 240.44 619.827 234.76C616.787 229.08 615.267 222.76 615.267 215.8C615.267 209.08 616.787 203 619.827 197.56C622.867 192.04 627.067 187.72 632.427 184.6C637.787 181.4 643.747 179.8 650.307 179.8C655.907 179.8 661.027 181.16 665.667 183.88C670.387 186.52 674.187 190.2 677.067 194.92C680.027 199.64 681.707 204.88 682.107 210.64H663.147C662.747 206 661.347 202.2 658.947 199.24C656.627 196.28 653.627 194.8 649.947 194.8C645.147 194.8 641.307 196.76 638.427 200.68C635.627 204.52 634.227 209.56 634.227 215.8C634.227 222.36 635.627 227.6 638.427 231.52C641.227 235.36 645.067 237.28 649.947 237.28C653.387 237.28 656.227 236 658.467 233.44C660.787 230.8 662.227 227.36 662.787 223.12H681.867C681.227 228.72 679.427 233.8 676.467 238.36C673.507 242.92 669.707 246.52 665.067 249.16C660.507 251.72 655.587 253 650.307 253Z" fill="currentColor"/>
<path d="M723.987 253C717.347 253 711.467 251.4 706.347 248.2C701.227 244.92 697.267 240.48 694.467 234.88C691.667 229.2 690.267 222.84 690.267 215.8C690.267 209.08 691.707 203 694.587 197.56C697.547 192.04 701.587 187.72 706.707 184.6C711.827 181.4 717.547 179.8 723.867 179.8C730.347 179.8 736.107 181.4 741.147 184.6C746.187 187.8 750.107 192.24 752.907 197.92C755.707 203.6 757.107 210.04 757.107 217.24C757.107 218.2 757.027 219.72 756.867 221.8H709.587C709.587 224.6 710.227 227.36 711.507 230.08C712.787 232.8 714.587 235.04 716.907 236.8C719.227 238.56 721.827 239.44 724.707 239.44C727.907 239.44 730.867 238.32 733.587 236.08C736.387 233.84 738.627 231.04 740.307 227.68L754.347 234.04C751.627 239.88 747.587 244.52 742.227 247.96C736.867 251.32 730.787 253 723.987 253ZM738.147 210.28C737.667 204.92 736.147 200.64 733.587 197.44C731.027 194.24 727.787 192.64 723.867 192.64C720.027 192.64 716.747 194.24 714.027 197.44C711.387 200.64 709.787 204.92 709.227 210.28H738.147Z" fill="currentColor"/>
<path d="M768.867 181.6H787.347V193.48C788.947 189.48 791.667 186.2 795.507 183.64C799.347 181.08 803.427 179.8 807.747 179.8C813.107 179.8 817.907 181.4 822.147 184.6C826.467 187.8 829.867 192.2 832.347 197.8C834.827 203.32 836.067 209.52 836.067 216.4C836.067 223.28 834.827 229.52 832.347 235.12C829.867 240.64 826.467 245 822.147 248.2C817.907 251.4 813.107 253 807.747 253C803.507 253 799.507 251.68 795.747 249.04C791.987 246.4 789.187 243.04 787.347 238.96V275.2H768.867V181.6ZM787.347 216.4C787.347 220.64 787.987 224.44 789.267 227.8C790.627 231.16 792.507 233.8 794.907 235.72C797.307 237.64 800.027 238.6 803.067 238.6C805.707 238.6 808.107 237.64 810.267 235.72C812.427 233.8 814.107 231.16 815.307 227.8C816.507 224.36 817.107 220.56 817.107 216.4C817.107 212.24 816.507 208.48 815.307 205.12C814.107 201.68 812.427 199 810.267 197.08C808.107 195.08 805.707 194.08 803.067 194.08C800.027 194.08 797.307 195.08 794.907 197.08C792.507 199 790.627 201.64 789.267 205C787.987 208.36 787.347 212.16 787.347 216.4Z" fill="currentColor"/>
<path d="M882.772 252.4C877.252 252.4 872.252 251.2 867.772 248.8C863.292 246.4 859.772 243.12 857.212 238.96C854.652 234.72 853.372 230 853.372 224.8V196.6H841.372V181.6H853.372V164.2H871.852V181.6H892.252V196.6H871.852V224.8C871.852 228.24 872.932 231.08 875.092 233.32C877.252 235.56 880.052 236.68 883.492 236.68C884.772 236.68 886.252 236.56 887.932 236.32C889.692 236.08 891.132 235.8 892.252 235.48V251.2C891.532 251.52 890.252 251.8 888.412 252.04C886.652 252.28 884.772 252.4 882.772 252.4Z" fill="currentColor"/>
<path d="M931.956 253C925.956 253 920.516 252 915.636 250C910.756 248 906.916 245.24 904.116 241.72C901.396 238.2 900.036 234.28 900.036 229.96H918.516C918.516 232.6 919.796 234.84 922.356 236.68C924.916 238.52 928.116 239.44 931.956 239.44C935.716 239.44 938.796 238.68 941.196 237.16C943.676 235.56 944.916 233.56 944.916 231.16C944.916 229.32 944.196 227.84 942.756 226.72C941.396 225.52 939.636 224.64 937.476 224.08C935.396 223.44 932.436 222.76 928.596 222.04C922.916 220.92 918.236 219.76 914.556 218.56C910.876 217.28 907.716 215.2 905.076 212.32C902.516 209.36 901.236 205.32 901.236 200.2C901.236 196.36 902.516 192.88 905.076 189.76C907.636 186.64 911.116 184.2 915.516 182.44C919.996 180.68 924.996 179.8 930.516 179.8C936.276 179.8 941.476 180.76 946.116 182.68C950.756 184.6 954.396 187.24 957.036 190.6C959.676 193.88 960.996 197.56 960.996 201.64H942.516C942.516 199.32 941.356 197.36 939.036 195.76C936.796 194.16 933.956 193.36 930.516 193.36C927.396 193.36 924.796 194.04 922.716 195.4C920.716 196.68 919.716 198.28 919.716 200.2C919.716 202.04 920.396 203.52 921.756 204.64C923.196 205.76 924.956 206.64 927.036 207.28C929.196 207.84 932.196 208.48 936.036 209.2C941.716 210.32 946.356 211.52 949.956 212.8C953.636 214 956.796 216.08 959.436 219.04C962.076 222 963.396 226.04 963.396 231.16C963.396 235.32 962.036 239.08 959.316 242.44C956.596 245.72 952.836 248.32 948.036 250.24C943.236 252.08 937.876 253 931.956 253Z" fill="currentColor"/>
</g>
<g id="Transformer">
<path d="M38.12 17.52H10.52V1.20001H84.68V17.52H57.08V97.2H38.12V17.52Z" fill="currentColor"/>
<path d="M81.5703 27.6H99.3303V43.08C101.09 38.12 103.77 34.2 107.37 31.32C110.97 28.36 115.41 26.88 120.69 26.88H123.21V44.76H120.69C113.65 44.76 108.45 46.96 105.09 51.36C101.73 55.76 100.05 61.72 100.05 69.24V97.2H81.5703V27.6Z" fill="currentColor"/>
<path d="M149.746 98.64C143.506 98.64 138.106 97 133.546 93.72C129.066 90.36 126.826 85.28 126.826 78.48C126.826 73.84 128.346 70.08 131.386 67.2C134.506 64.24 137.946 62.04 141.706 60.6C145.546 59.16 149.946 57.84 154.906 56.64L160.066 55.2C162.786 54.48 165.226 53.8 167.386 53.16C169.546 52.44 171.226 51.76 172.426 51.12V50.04C172.426 46.92 171.306 44.36 169.066 42.36C166.826 40.28 164.026 39.24 160.666 39.24C157.546 39.24 154.826 40.2 152.506 42.12C150.186 44.04 148.826 46.44 148.426 49.32L131.866 47.64C132.506 43.48 134.186 39.76 136.906 36.48C139.706 33.12 143.266 30.52 147.586 28.68C151.906 26.76 156.626 25.8 161.746 25.8C167.186 25.8 172.106 26.92 176.506 29.16C180.986 31.32 184.466 34.36 186.946 38.28C189.506 42.2 190.786 46.6 190.786 51.48V97.2H172.426V81.48C170.666 86.92 168.106 91.16 164.746 94.2C161.466 97.16 156.466 98.64 149.746 98.64ZM145.666 78.24C145.666 80.08 146.506 81.6 148.186 82.8C149.866 83.92 152.026 84.48 154.666 84.48C159.386 84.48 163.466 82.6 166.906 78.84C170.346 75 172.346 70.04 172.906 63.96C171.626 64.52 168.426 65.76 163.306 67.68L158.626 69.36C154.626 70.48 151.466 71.68 149.146 72.96C146.826 74.24 145.666 76 145.666 78.24Z" fill="currentColor"/>
<path d="M204.5 27.6H222.62V40.08C224.7 35.84 227.66 32.4 231.5 29.76C235.34 27.12 239.34 25.8 243.5 25.8C247.9 25.8 251.86 27.12 255.38 29.76C258.9 32.4 261.66 36.08 263.66 40.8C265.74 45.44 266.78 50.64 266.78 56.4V97.2H248.3V59.28C248.3 53.84 247.18 49.68 244.94 46.8C242.78 43.92 239.82 42.48 236.06 42.48C232.22 42.48 229.06 43.96 226.58 46.92C224.18 49.8 222.98 53.92 222.98 59.28V97.2H204.5V27.6Z" fill="currentColor"/>
<path d="M308.878 99C302.878 99 297.438 98 292.558 96C287.678 94 283.838 91.24 281.038 87.72C278.318 84.2 276.958 80.28 276.958 75.96H295.438C295.438 78.6 296.718 80.84 299.278 82.68C301.838 84.52 305.038 85.44 308.878 85.44C312.638 85.44 315.718 84.68 318.118 83.16C320.598 81.56 321.838 79.56 321.838 77.16C321.838 75.32 321.118 73.84 319.678 72.72C318.318 71.52 316.558 70.64 314.398 70.08C312.318 69.44 309.358 68.76 305.518 68.04C299.838 66.92 295.158 65.76 291.478 64.56C287.798 63.28 284.638 61.2 281.998 58.32C279.438 55.36 278.158 51.32 278.158 46.2C278.158 42.36 279.438 38.88 281.998 35.76C284.558 32.64 288.038 30.2 292.438 28.44C296.918 26.68 301.918 25.8 307.438 25.8C313.198 25.8 318.398 26.76 323.038 28.68C327.678 30.6 331.318 33.24 333.958 36.6C336.598 39.88 337.918 43.56 337.918 47.64H319.438C319.438 45.32 318.278 43.36 315.958 41.76C313.718 40.16 310.878 39.36 307.438 39.36C304.318 39.36 301.718 40.04 299.638 41.4C297.638 42.68 296.638 44.28 296.638 46.2C296.638 48.04 297.318 49.52 298.678 50.64C300.118 51.76 301.878 52.64 303.958 53.28C306.118 53.84 309.118 54.48 312.958 55.2C318.638 56.32 323.278 57.52 326.878 58.8C330.558 60 333.718 62.08 336.358 65.04C338.998 68 340.318 72.04 340.318 77.16C340.318 81.32 338.958 85.08 336.238 88.44C333.518 91.72 329.758 94.32 324.958 96.24C320.158 98.08 314.798 99 308.878 99Z" fill="currentColor"/>
<path d="M357.676 41.88H345.676V27.6H357.676C357.676 22.4 358.956 17.72 361.516 13.56C364.076 9.32 367.596 6 372.076 3.6C376.556 1.2 381.556 0 387.076 0C389.076 0 390.956 0.120001 392.716 0.360003C394.556 0.600004 395.836 0.880005 396.556 1.20001V16.92C393.996 16.12 391.316 15.72 388.516 15.72C384.996 15.72 382.036 16.84 379.636 19.08C377.316 21.32 376.156 24.16 376.156 27.6H396.556V41.88H376.156V97.2H357.676V41.88Z" fill="currentColor"/>
<path d="M432.553 99C426.233 99 420.473 97.4 415.273 94.2C410.153 90.92 406.113 86.44 403.153 80.76C400.193 75.08 398.713 68.76 398.713 61.8C398.713 55.08 400.193 49 403.153 43.56C406.113 38.04 410.153 33.72 415.273 30.6C420.473 27.4 426.233 25.8 432.553 25.8C438.873 25.8 444.593 27.4 449.713 30.6C454.913 33.72 458.993 38.04 461.953 43.56C464.913 49 466.393 55.08 466.393 61.8C466.393 68.76 464.913 75.08 461.953 80.76C458.993 86.44 454.913 90.92 449.713 94.2C444.593 97.4 438.873 99 432.553 99ZM417.673 61.8C417.673 68.6 418.953 74.12 421.513 78.36C424.153 82.6 427.833 84.72 432.553 84.72C437.273 84.72 440.913 82.6 443.473 78.36C446.113 74.12 447.433 68.6 447.433 61.8C447.433 55.4 446.113 50.2 443.473 46.2C440.913 42.12 437.273 40.08 432.553 40.08C427.833 40.08 424.153 42.12 421.513 46.2C418.953 50.2 417.673 55.4 417.673 61.8Z" fill="currentColor"/>
<path d="M478.133 27.6H495.893V43.08C497.653 38.12 500.333 34.2 503.933 31.32C507.533 28.36 511.973 26.88 517.253 26.88H519.773V44.76H517.253C510.213 44.76 505.013 46.96 501.653 51.36C498.293 55.76 496.613 61.72 496.613 69.24V97.2H478.133V27.6Z" fill="currentColor"/>
<path d="M529.812 27.6H547.932V40.92C549.532 36.36 552.012 32.72 555.372 30C558.732 27.2 562.453 25.8 566.533 25.8C570.773 25.8 574.532 27.12 577.812 29.76C581.092 32.4 583.652 36 585.492 40.56C587.092 36.32 589.813 32.8 593.653 30C597.573 27.2 601.773 25.8 606.253 25.8C610.573 25.8 614.413 27.16 617.773 29.88C621.133 32.6 623.733 36.36 625.573 41.16C627.413 45.88 628.333 51.2 628.333 57.12V97.2H609.853V57.12C609.853 52.8 608.933 49.28 607.093 46.56C605.333 43.84 602.813 42.48 599.533 42.48C596.573 42.48 594.053 43.68 591.973 46.08C589.893 48.48 588.692 51.52 588.372 55.2V97.2H569.893V57.12C569.893 52.8 569.013 49.28 567.253 46.56C565.493 43.84 563.012 42.48 559.812 42.48C556.532 42.48 553.773 43.88 551.533 46.68C549.373 49.48 548.293 52.96 548.293 57.12V97.2H529.812V27.6Z" fill="currentColor"/>
<path d="M672.081 99C665.441 99 659.561 97.4 654.441 94.2C649.321 90.92 645.361 86.48 642.561 80.88C639.761 75.2 638.361 68.84 638.361 61.8C638.361 55.08 639.801 49 642.681 43.56C645.641 38.04 649.681 33.72 654.801 30.6C659.921 27.4 665.641 25.8 671.961 25.8C678.441 25.8 684.201 27.4 689.241 30.6C694.281 33.8 698.201 38.24 701.001 43.92C703.801 49.6 705.201 56.04 705.201 63.24C705.201 64.2 705.121 65.72 704.961 67.8H657.681C657.681 70.6 658.321 73.36 659.601 76.08C660.881 78.8 662.681 81.04 665.001 82.8C667.321 84.56 669.921 85.44 672.801 85.44C676.001 85.44 678.961 84.32 681.681 82.08C684.481 79.84 686.721 77.04 688.401 73.68L702.441 80.04C699.721 85.88 695.681 90.52 690.321 93.96C684.961 97.32 678.881 99 672.081 99ZM686.241 56.28C685.761 50.92 684.241 46.64 681.681 43.44C679.121 40.24 675.881 38.64 671.961 38.64C668.121 38.64 664.841 40.24 662.121 43.44C659.481 46.64 657.881 50.92 657.321 56.28H686.241Z" fill="currentColor"/>
<path d="M716.961 27.6H734.721V43.08C736.481 38.12 739.161 34.2 742.761 31.32C746.361 28.36 750.801 26.88 756.081 26.88H758.601V44.76H756.081C749.041 44.76 743.841 46.96 740.481 51.36C737.121 55.76 735.441 61.72 735.441 69.24V97.2H716.961V27.6Z" fill="currentColor"/>
</g>
<g id="fonctionnels">
<path d="M14.52 615.88H2.52002V601.6H14.52C14.52 596.4 15.8 591.72 18.36 587.56C20.92 583.32 24.44 580 28.92 577.6C33.4 575.2 38.4 574 43.92 574C45.92 574 47.8 574.12 49.56 574.36C51.4 574.6 52.68 574.88 53.4 575.2V590.92C50.84 590.12 48.16 589.72 45.36 589.72C41.84 589.72 38.88 590.84 36.48 593.08C34.16 595.32 33 598.16 33 601.6H53.4V615.88H33V671.2H14.52V615.88Z" fill="currentColor"/>
<path d="M89.3963 673C83.0763 673 77.3163 671.4 72.1163 668.2C66.9963 664.92 62.9563 660.44 59.9963 654.76C57.0363 649.08 55.5563 642.76 55.5563 635.8C55.5563 629.08 57.0363 623 59.9963 617.56C62.9563 612.04 66.9963 607.72 72.1163 604.6C77.3163 601.4 83.0763 599.8 89.3963 599.8C95.7163 599.8 101.436 601.4 106.556 604.6C111.756 607.72 115.836 612.04 118.796 617.56C121.756 623 123.236 629.08 123.236 635.8C123.236 642.76 121.756 649.08 118.796 654.76C115.836 660.44 111.756 664.92 106.556 668.2C101.436 671.4 95.7163 673 89.3963 673ZM74.5163 635.8C74.5163 642.6 75.7963 648.12 78.3563 652.36C80.9963 656.6 84.6763 658.72 89.3963 658.72C94.1163 658.72 97.7563 656.6 100.316 652.36C102.956 648.12 104.276 642.6 104.276 635.8C104.276 629.4 102.956 624.2 100.316 620.2C97.7563 616.12 94.1163 614.08 89.3963 614.08C84.6763 614.08 80.9963 616.12 78.3563 620.2C75.7963 624.2 74.5163 629.4 74.5163 635.8Z" fill="currentColor"/>
<path d="M134.977 601.6H153.097V614.08C155.177 609.84 158.137 606.4 161.977 603.76C165.817 601.12 169.817 599.8 173.977 599.8C178.377 599.8 182.337 601.12 185.857 603.76C189.377 606.4 192.137 610.08 194.137 614.8C196.217 619.44 197.257 624.64 197.257 630.4V671.2H178.777V633.28C178.777 627.84 177.657 623.68 175.417 620.8C173.257 617.92 170.297 616.48 166.537 616.48C162.697 616.48 159.537 617.96 157.057 620.92C154.657 623.8 153.457 627.92 153.457 633.28V671.2H134.977V601.6Z" fill="currentColor"/>
<path d="M242.354 673C235.794 673 229.834 671.4 224.474 668.2C219.114 664.92 214.914 660.44 211.874 654.76C208.834 649.08 207.314 642.76 207.314 635.8C207.314 629.08 208.834 623 211.874 617.56C214.914 612.04 219.114 607.72 224.474 604.6C229.834 601.4 235.794 599.8 242.354 599.8C247.954 599.8 253.074 601.16 257.714 603.88C262.434 606.52 266.234 610.2 269.114 614.92C272.074 619.64 273.754 624.88 274.154 630.64H255.194C254.794 626 253.394 622.2 250.994 619.24C248.674 616.28 245.674 614.8 241.994 614.8C237.194 614.8 233.354 616.76 230.474 620.68C227.674 624.52 226.274 629.56 226.274 635.8C226.274 642.36 227.674 647.6 230.474 651.52C233.274 655.36 237.114 657.28 241.994 657.28C245.434 657.28 248.274 656 250.514 653.44C252.834 650.8 254.274 647.36 254.834 643.12H273.914C273.274 648.72 271.474 653.8 268.514 658.36C265.554 662.92 261.754 666.52 257.114 669.16C252.554 671.72 247.634 673 242.354 673Z" fill="currentColor"/>
<path d="M320.834 672.4C315.314 672.4 310.314 671.2 305.834 668.8C301.354 666.4 297.834 663.12 295.274 658.96C292.714 654.72 291.434 650 291.434 644.8V616.6H279.434V601.6H291.434V584.2H309.914V601.6H330.314V616.6H309.914V644.8C309.914 648.24 310.994 651.08 313.154 653.32C315.314 655.56 318.114 656.68 321.554 656.68C322.834 656.68 324.314 656.56 325.994 656.32C327.754 656.08 329.194 655.8 330.314 655.48V671.2C329.594 671.52 328.314 671.8 326.474 672.04C324.714 672.28 322.834 672.4 320.834 672.4Z" fill="currentColor"/>
<path d="M351.178 594.16C348.138 594.16 345.618 593.24 343.618 591.4C341.618 589.48 340.618 587.12 340.618 584.32C340.618 581.52 341.618 579.2 343.618 577.36C345.698 575.52 348.218 574.6 351.178 574.6C354.138 574.6 356.618 575.52 358.618 577.36C360.618 579.2 361.618 581.52 361.618 584.32C361.618 587.12 360.618 589.48 358.618 591.4C356.618 593.24 354.138 594.16 351.178 594.16ZM341.938 601.6H360.418V671.2H341.938V601.6Z" fill="currentColor"/>
<path d="M406.271 673C399.951 673 394.191 671.4 388.991 668.2C383.871 664.92 379.831 660.44 376.871 654.76C373.911 649.08 372.431 642.76 372.431 635.8C372.431 629.08 373.911 623 376.871 617.56C379.831 612.04 383.871 607.72 388.991 604.6C394.191 601.4 399.951 599.8 406.271 599.8C412.591 599.8 418.311 601.4 423.431 604.6C428.631 607.72 432.711 612.04 435.671 617.56C438.631 623 440.111 629.08 440.111 635.8C440.111 642.76 438.631 649.08 435.671 654.76C432.711 660.44 428.631 664.92 423.431 668.2C418.311 671.4 412.591 673 406.271 673ZM391.391 635.8C391.391 642.6 392.671 648.12 395.231 652.36C397.871 656.6 401.551 658.72 406.271 658.72C410.991 658.72 414.631 656.6 417.191 652.36C419.831 648.12 421.151 642.6 421.151 635.8C421.151 629.4 419.831 624.2 417.191 620.2C414.631 616.12 410.991 614.08 406.271 614.08C401.551 614.08 397.871 616.12 395.231 620.2C392.671 624.2 391.391 629.4 391.391 635.8Z" fill="currentColor"/>
<path d="M451.852 601.6H469.972V614.08C472.052 609.84 475.012 606.4 478.852 603.76C482.692 601.12 486.692 599.8 490.852 599.8C495.252 599.8 499.212 601.12 502.732 603.76C506.252 606.4 509.012 610.08 511.012 614.8C513.092 619.44 514.132 624.64 514.132 630.4V671.2H495.652V633.28C495.652 627.84 494.532 623.68 492.292 620.8C490.132 617.92 487.172 616.48 483.412 616.48C479.572 616.48 476.412 617.96 473.932 620.92C471.532 623.8 470.332 627.92 470.332 633.28V671.2H451.852V601.6Z" fill="currentColor"/>
<path d="M527.789 601.6H545.909V614.08C547.989 609.84 550.949 606.4 554.789 603.76C558.629 601.12 562.629 599.8 566.789 599.8C571.189 599.8 575.149 601.12 578.669 603.76C582.189 606.4 584.949 610.08 586.949 614.8C589.029 619.44 590.069 624.64 590.069 630.4V671.2H571.589V633.28C571.589 627.84 570.469 623.68 568.229 620.8C566.069 617.92 563.109 616.48 559.349 616.48C555.509 616.48 552.349 617.96 549.869 620.92C547.469 623.8 546.269 627.92 546.269 633.28V671.2H527.789V601.6Z" fill="currentColor"/>
<path d="M633.847 673C627.207 673 621.327 671.4 616.207 668.2C611.087 664.92 607.127 660.48 604.327 654.88C601.527 649.2 600.127 642.84 600.127 635.8C600.127 629.08 601.567 623 604.447 617.56C607.407 612.04 611.447 607.72 616.567 604.6C621.687 601.4 627.407 599.8 633.727 599.8C640.207 599.8 645.967 601.4 651.007 604.6C656.047 607.8 659.967 612.24 662.767 617.92C665.567 623.6 666.967 630.04 666.967 637.24C666.967 638.2 666.887 639.72 666.727 641.8H619.447C619.447 644.6 620.087 647.36 621.367 650.08C622.647 652.8 624.447 655.04 626.767 656.8C629.087 658.56 631.687 659.44 634.567 659.44C637.767 659.44 640.727 658.32 643.447 656.08C646.247 653.84 648.487 651.04 650.167 647.68L664.207 654.04C661.487 659.88 657.447 664.52 652.087 667.96C646.727 671.32 640.647 673 633.847 673ZM648.007 630.28C647.527 624.92 646.007 620.64 643.447 617.44C640.887 614.24 637.647 612.64 633.727 612.64C629.887 612.64 626.607 614.24 623.887 617.44C621.247 620.64 619.647 624.92 619.087 630.28H648.007Z" fill="currentColor"/>
<path d="M678.727 575.2H697.207V671.2H678.727V575.2Z" fill="currentColor"/>
<path d="M741.034 673C735.034 673 729.594 672 724.714 670C719.834 668 715.994 665.24 713.194 661.72C710.474 658.2 709.114 654.28 709.114 649.96H727.594C727.594 652.6 728.874 654.84 731.434 656.68C733.994 658.52 737.194 659.44 741.034 659.44C744.794 659.44 747.874 658.68 750.274 657.16C752.754 655.56 753.994 653.56 753.994 651.16C753.994 649.32 753.274 647.84 751.834 646.72C750.474 645.52 748.714 644.64 746.554 644.08C744.474 643.44 741.514 642.76 737.674 642.04C731.994 640.92 727.314 639.76 723.634 638.56C719.954 637.28 716.794 635.2 714.154 632.32C711.594 629.36 710.314 625.32 710.314 620.2C710.314 616.36 711.594 612.88 714.154 609.76C716.714 606.64 720.194 604.2 724.594 602.44C729.074 600.68 734.074 599.8 739.594 599.8C745.354 599.8 750.554 600.76 755.194 602.68C759.834 604.6 763.474 607.24 766.114 610.6C768.754 613.88 770.074 617.56 770.074 621.64H751.594C751.594 619.32 750.434 617.36 748.114 615.76C745.874 614.16 743.034 613.36 739.594 613.36C736.474 613.36 733.874 614.04 731.794 615.4C729.794 616.68 728.794 618.28 728.794 620.2C728.794 622.04 729.474 623.52 730.834 624.64C732.274 625.76 734.034 626.64 736.114 627.28C738.274 627.84 741.274 628.48 745.114 629.2C750.794 630.32 755.434 631.52 759.034 632.8C762.714 634 765.874 636.08 768.514 639.04C771.154 642 772.474 646.04 772.474 651.16C772.474 655.32 771.114 659.08 768.394 662.44C765.674 665.72 761.914 668.32 757.114 670.24C752.314 672.08 746.954 673 741.034 673Z" fill="currentColor"/>
</g>
<g id="En">
<path d="M210.92 155.2H276.68V170.8H229.88V195.64H270.68V210.64H229.88V235.6H276.68V251.2H210.92V155.2Z" fill="currentColor"/>
<path d="M290.797 181.6H308.917V194.08C310.997 189.84 313.957 186.4 317.797 183.76C321.637 181.12 325.637 179.8 329.797 179.8C334.197 179.8 338.157 181.12 341.677 183.76C345.197 186.4 347.957 190.08 349.957 194.8C352.037 199.44 353.077 204.64 353.077 210.4V251.2H334.597V213.28C334.597 207.84 333.477 203.68 331.237 200.8C329.077 197.92 326.117 196.48 322.357 196.48C318.517 196.48 315.357 197.96 312.877 200.92C310.477 203.8 309.277 207.92 309.277 213.28V251.2H290.797V181.6Z" fill="currentColor"/>
</g>
<g id="creatifs">
<path d="M314.917 533C308.357 533 302.397 531.4 297.037 528.2C291.677 524.92 287.477 520.44 284.437 514.76C281.397 509.08 279.877 502.76 279.877 495.8C279.877 489.08 281.397 483 284.437 477.56C287.477 472.04 291.677 467.72 297.037 464.6C302.397 461.4 308.357 459.8 314.917 459.8C320.517 459.8 325.637 461.16 330.277 463.88C334.997 466.52 338.797 470.2 341.677 474.92C344.637 479.64 346.317 484.88 346.717 490.64H327.757C327.357 486 325.957 482.2 323.557 479.24C321.237 476.28 318.237 474.8 314.557 474.8C309.757 474.8 305.917 476.76 303.037 480.68C300.237 484.52 298.837 489.56 298.837 495.8C298.837 502.36 300.237 507.6 303.037 511.52C305.837 515.36 309.677 517.28 314.557 517.28C317.997 517.28 320.837 516 323.077 513.44C325.397 510.8 326.837 507.36 327.397 503.12H346.477C345.837 508.72 344.037 513.8 341.077 518.36C338.117 522.92 334.317 526.52 329.677 529.16C325.117 531.72 320.197 533 314.917 533Z" fill="currentColor"/>
<path d="M358.477 461.6H376.237V477.08C377.997 472.12 380.677 468.2 384.277 465.32C387.877 462.36 392.317 460.88 397.597 460.88H400.117V478.76H397.597C390.557 478.76 385.357 480.96 381.997 485.36C378.637 489.76 376.957 495.72 376.957 503.24V531.2H358.477V461.6Z" fill="currentColor"/>
<path d="M437.933 533C431.293 533 425.413 531.4 420.293 528.2C415.173 524.92 411.213 520.48 408.413 514.88C405.613 509.2 404.213 502.84 404.213 495.8C404.213 489.08 405.653 483 408.533 477.56C411.493 472.04 415.533 467.72 420.653 464.6C425.773 461.4 431.493 459.8 437.813 459.8C444.293 459.8 450.053 461.4 455.093 464.6C460.133 467.8 464.053 472.24 466.853 477.92C469.653 483.6 471.053 490.04 471.053 497.24C471.053 498.2 470.973 499.72 470.813 501.8H423.533C423.533 504.6 424.173 507.36 425.453 510.08C426.733 512.8 428.533 515.04 430.853 516.8C433.173 518.56 435.773 519.44 438.653 519.44C441.853 519.44 444.813 518.32 447.533 516.08C450.333 513.84 452.573 511.04 454.253 507.68L468.293 514.04C465.573 519.88 461.533 524.52 456.173 527.96C450.813 531.32 444.733 533 437.933 533ZM452.093 490.28C451.613 484.92 450.093 480.64 447.533 477.44C444.973 474.24 441.733 472.64 437.813 472.64C433.973 472.64 430.693 474.24 427.973 477.44C425.333 480.64 423.733 484.92 423.173 490.28H452.093ZM431.333 450.32L436.733 431.6L449.933 436.04L442.253 454.28L431.333 450.32Z" fill="currentColor"/>
<path d="M501.653 532.64C495.413 532.64 490.013 531 485.453 527.72C480.973 524.36 478.733 519.28 478.733 512.48C478.733 507.84 480.253 504.08 483.293 501.2C486.413 498.24 489.853 496.04 493.613 494.6C497.453 493.16 501.853 491.84 506.813 490.64L511.973 489.2C514.693 488.48 517.133 487.8 519.293 487.16C521.453 486.44 523.133 485.76 524.333 485.12V484.04C524.333 480.92 523.213 478.36 520.973 476.36C518.733 474.28 515.933 473.24 512.573 473.24C509.453 473.24 506.733 474.2 504.413 476.12C502.093 478.04 500.733 480.44 500.333 483.32L483.773 481.64C484.413 477.48 486.093 473.76 488.813 470.48C491.613 467.12 495.173 464.52 499.493 462.68C503.813 460.76 508.533 459.8 513.653 459.8C519.093 459.8 524.013 460.92 528.413 463.16C532.893 465.32 536.373 468.36 538.853 472.28C541.413 476.2 542.693 480.6 542.693 485.48V531.2H524.333V515.48C522.573 520.92 520.013 525.16 516.653 528.2C513.373 531.16 508.373 532.64 501.653 532.64ZM497.573 512.24C497.573 514.08 498.413 515.6 500.093 516.8C501.773 517.92 503.933 518.48 506.573 518.48C511.293 518.48 515.373 516.6 518.813 512.84C522.253 509 524.253 504.04 524.813 497.96C523.533 498.52 520.333 499.76 515.213 501.68L510.533 503.36C506.533 504.48 503.373 505.68 501.053 506.96C498.733 508.24 497.573 510 497.573 512.24Z" fill="currentColor"/>
<path d="M591.326 532.4C585.806 532.4 580.806 531.2 576.326 528.8C571.846 526.4 568.326 523.12 565.766 518.96C563.206 514.72 561.926 510 561.926 504.8V476.6H549.926V461.6H561.926V444.2H580.406V461.6H600.806V476.6H580.406V504.8C580.406 508.24 581.486 511.08 583.646 513.32C585.806 515.56 588.606 516.68 592.046 516.68C593.326 516.68 594.806 516.56 596.486 516.32C598.246 516.08 599.686 515.8 600.806 515.48V531.2C600.086 531.52 598.806 531.8 596.966 532.04C595.206 532.28 593.326 532.4 591.326 532.4Z" fill="currentColor"/>
<path d="M621.67 454.16C618.63 454.16 616.11 453.24 614.11 451.4C612.11 449.48 611.11 447.12 611.11 444.32C611.11 441.52 612.11 439.2 614.11 437.36C616.19 435.52 618.71 434.6 621.67 434.6C624.63 434.6 627.11 435.52 629.11 437.36C631.11 439.2 632.11 441.52 632.11 444.32C632.11 447.12 631.11 449.48 629.11 451.4C627.11 453.24 624.63 454.16 621.67 454.16ZM612.43 461.6H630.91V531.2H612.43V461.6Z" fill="currentColor"/>
<path d="M652.044 475.88H640.044V461.6H652.044C652.044 456.4 653.324 451.72 655.884 447.56C658.444 443.32 661.964 440 666.444 437.6C670.924 435.2 675.924 434 681.444 434C683.444 434 685.324 434.12 687.084 434.36C688.924 434.6 690.204 434.88 690.924 435.2V450.92C688.364 450.12 685.684 449.72 682.884 449.72C679.364 449.72 676.404 450.84 674.004 453.08C671.684 455.32 670.524 458.16 670.524 461.6H690.924V475.88H670.524V531.2H652.044V475.88Z" fill="currentColor"/>
<path d="M728.284 533C722.284 533 716.844 532 711.964 530C707.084 528 703.244 525.24 700.444 521.72C697.724 518.2 696.364 514.28 696.364 509.96H714.844C714.844 512.6 716.124 514.84 718.684 516.68C721.244 518.52 724.444 519.44 728.284 519.44C732.044 519.44 735.124 518.68 737.524 517.16C740.004 515.56 741.244 513.56 741.244 511.16C741.244 509.32 740.524 507.84 739.084 506.72C737.724 505.52 735.964 504.64 733.804 504.08C731.724 503.44 728.764 502.76 724.924 502.04C719.244 500.92 714.564 499.76 710.884 498.56C707.204 497.28 704.044 495.2 701.404 492.32C698.844 489.36 697.564 485.32 697.564 480.2C697.564 476.36 698.844 472.88 701.404 469.76C703.964 466.64 707.444 464.2 711.844 462.44C716.324 460.68 721.324 459.8 726.844 459.8C732.604 459.8 737.804 460.76 742.444 462.68C747.084 464.6 750.724 467.24 753.364 470.6C756.004 473.88 757.324 477.56 757.324 481.64H738.844C738.844 479.32 737.684 477.36 735.364 475.76C733.124 474.16 730.284 473.36 726.844 473.36C723.724 473.36 721.124 474.04 719.044 475.4C717.044 476.68 716.044 478.28 716.044 480.2C716.044 482.04 716.724 483.52 718.084 484.64C719.524 485.76 721.284 486.64 723.364 487.28C725.524 487.84 728.524 488.48 732.364 489.2C738.044 490.32 742.684 491.52 746.284 492.8C749.964 494 753.124 496.08 755.764 499.04C758.404 502 759.724 506.04 759.724 511.16C759.724 515.32 758.364 519.08 755.644 522.44C752.924 525.72 749.164 528.32 744.364 530.24C739.564 532.08 734.204 533 728.284 533Z" fill="currentColor"/>
</g>
<g id="projets">
<path d="M489.32 312.2H507.8V324.08C509.4 320.08 512.12 316.8 515.96 314.24C519.8 311.68 523.88 310.4 528.2 310.4C533.56 310.4 538.36 312 542.6 315.2C546.92 318.4 550.32 322.8 552.8 328.4C555.28 333.92 556.52 340.12 556.52 347C556.52 353.88 555.28 360.12 552.8 365.72C550.32 371.24 546.92 375.6 542.6 378.8C538.36 382 533.56 383.6 528.2 383.6C523.96 383.6 519.96 382.28 516.2 379.64C512.44 377 509.64 373.64 507.8 369.56V405.8H489.32V312.2ZM507.8 347C507.8 351.24 508.44 355.04 509.72 358.4C511.08 361.76 512.96 364.4 515.36 366.32C517.76 368.24 520.48 369.2 523.52 369.2C526.16 369.2 528.56 368.24 530.72 366.32C532.88 364.4 534.56 361.76 535.76 358.4C536.96 354.96 537.56 351.16 537.56 347C537.56 342.84 536.96 339.08 535.76 335.72C534.56 332.28 532.88 329.6 530.72 327.68C528.56 325.68 526.16 324.68 523.52 324.68C520.48 324.68 517.76 325.68 515.36 327.68C512.96 329.6 511.08 332.24 509.72 335.6C508.44 338.96 507.8 342.76 507.8 347Z" fill="currentColor"/>
<path d="M568.304 312.2H586.064V327.68C587.824 322.72 590.504 318.8 594.104 315.92C597.704 312.96 602.144 311.48 607.424 311.48H609.944V329.36H607.424C600.384 329.36 595.184 331.56 591.824 335.96C588.464 340.36 586.784 346.32 586.784 353.84V381.8H568.304V312.2Z" fill="currentColor"/>
<path d="M647.88 383.6C641.56 383.6 635.8 382 630.6 378.8C625.48 375.52 621.44 371.04 618.48 365.36C615.52 359.68 614.04 353.36 614.04 346.4C614.04 339.68 615.52 333.6 618.48 328.16C621.44 322.64 625.48 318.32 630.6 315.2C635.8 312 641.56 310.4 647.88 310.4C654.2 310.4 659.92 312 665.04 315.2C670.24 318.32 674.32 322.64 677.28 328.16C680.24 333.6 681.72 339.68 681.72 346.4C681.72 353.36 680.24 359.68 677.28 365.36C674.32 371.04 670.24 375.52 665.04 378.8C659.92 382 654.2 383.6 647.88 383.6ZM633 346.4C633 353.2 634.28 358.72 636.84 362.96C639.48 367.2 643.16 369.32 647.88 369.32C652.6 369.32 656.24 367.2 658.8 362.96C661.44 358.72 662.76 353.2 662.76 346.4C662.76 340 661.44 334.8 658.8 330.8C656.24 326.72 652.6 324.68 647.88 324.68C643.16 324.68 639.48 326.72 636.84 330.8C634.28 334.8 633 340 633 346.4Z" fill="currentColor"/>
<path d="M704.141 304.76C701.101 304.76 698.581 303.84 696.581 302C694.581 300.08 693.581 297.72 693.581 294.92C693.581 292.12 694.581 289.8 696.581 287.96C698.661 286.12 701.181 285.2 704.141 285.2C707.101 285.2 709.581 286.12 711.581 287.96C713.581 289.8 714.581 292.12 714.581 294.92C714.581 297.72 713.581 300.08 711.581 302C709.581 303.84 707.101 304.76 704.141 304.76ZM683.621 390.44H683.861C687.061 390.44 689.701 389.16 691.781 386.6C693.941 384.04 695.021 380.88 695.021 377.12V312.2H713.501V377.12C713.501 382.8 712.181 387.96 709.541 392.6C706.981 397.32 703.461 401 698.981 403.64C694.501 406.28 689.461 407.6 683.861 407.6H683.621V390.44Z" fill="currentColor"/>
<path d="M759.089 383.6C752.448 383.6 746.569 382 741.449 378.8C736.329 375.52 732.369 371.08 729.569 365.48C726.769 359.8 725.369 353.44 725.369 346.4C725.369 339.68 726.809 333.6 729.689 328.16C732.649 322.64 736.689 318.32 741.809 315.2C746.929 312 752.649 310.4 758.969 310.4C765.449 310.4 771.209 312 776.249 315.2C781.289 318.4 785.209 322.84 788.009 328.52C790.809 334.2 792.209 340.64 792.209 347.84C792.209 348.8 792.129 350.32 791.969 352.4H744.689C744.689 355.2 745.329 357.96 746.609 360.68C747.889 363.4 749.689 365.64 752.009 367.4C754.329 369.16 756.929 370.04 759.809 370.04C763.009 370.04 765.969 368.92 768.689 366.68C771.489 364.44 773.729 361.64 775.409 358.28L789.449 364.64C786.729 370.48 782.689 375.12 777.329 378.56C771.969 381.92 765.888 383.6 759.089 383.6ZM773.249 340.88C772.769 335.52 771.249 331.24 768.689 328.04C766.129 324.84 762.889 323.24 758.969 323.24C755.129 323.24 751.849 324.84 749.129 328.04C746.489 331.24 744.889 335.52 744.329 340.88H773.249Z" fill="currentColor"/>
<path d="M838.889 383C833.369 383 828.369 381.8 823.889 379.4C819.409 377 815.889 373.72 813.329 369.56C810.769 365.32 809.489 360.6 809.489 355.4V327.2H797.489V312.2H809.489V294.8H827.969V312.2H848.369V327.2H827.969V355.4C827.969 358.84 829.048 361.68 831.208 363.92C833.368 366.16 836.169 367.28 839.609 367.28C840.889 367.28 842.369 367.16 844.049 366.92C845.809 366.68 847.249 366.4 848.369 366.08V381.8C847.649 382.12 846.369 382.4 844.529 382.64C842.769 382.88 840.889 383 838.889 383Z" fill="currentColor"/>
<path d="M888.073 383.6C882.073 383.6 876.633 382.6 871.753 380.6C866.873 378.6 863.033 375.84 860.233 372.32C857.513 368.8 856.153 364.88 856.153 360.56H874.633C874.633 363.2 875.913 365.44 878.473 367.28C881.033 369.12 884.233 370.04 888.073 370.04C891.833 370.04 894.913 369.28 897.313 367.76C899.793 366.16 901.033 364.16 901.033 361.76C901.033 359.92 900.313 358.44 898.873 357.32C897.513 356.12 895.753 355.24 893.593 354.68C891.513 354.04 888.553 353.36 884.713 352.64C879.033 351.52 874.353 350.36 870.673 349.16C866.993 347.88 863.833 345.8 861.193 342.92C858.633 339.96 857.353 335.92 857.353 330.8C857.353 326.96 858.633 323.48 861.193 320.36C863.753 317.24 867.233 314.8 871.633 313.04C876.113 311.28 881.113 310.4 886.633 310.4C892.393 310.4 897.593 311.36 902.233 313.28C906.873 315.2 910.513 317.84 913.153 321.2C915.793 324.48 917.113 328.16 917.113 332.24H898.633C898.633 329.92 897.473 327.96 895.153 326.36C892.913 324.76 890.073 323.96 886.633 323.96C883.513 323.96 880.913 324.64 878.833 326C876.833 327.28 875.833 328.88 875.833 330.8C875.833 332.64 876.513 334.12 877.873 335.24C879.313 336.36 881.073 337.24 883.153 337.88C885.313 338.44 888.313 339.08 892.153 339.8C897.833 340.92 902.473 342.12 906.073 343.4C909.753 344.6 912.913 346.68 915.553 349.64C918.193 352.6 919.513 356.64 919.513 361.76C919.513 365.92 918.153 369.68 915.433 373.04C912.713 376.32 908.953 378.92 904.153 380.84C899.353 382.68 893.993 383.6 888.073 383.6Z" fill="currentColor"/>
</g>
</g>
</svg>
